HIERARCHY
ROOT Haolin_28_06:Solving:Hips
{
	OFFSET 0.000000 0.000000 0.000000
	CHANNELS 6 Xposition Yposition Zposition Xrotation Yrotation Zrotation
	JOINT Haolin_28_06:Solving:Spine
	{
		OFFSET 0.000000 -12.181966 2.015561
		CHANNELS 6 Xposition Yposition Zposition Xrotation Yrotation Zrotation
		JOINT Haolin_28_06:Solving:Spine1
		{
			OFFSET 0.000000 -8.890296 1.567602
			CHANNELS 6 Xposition Yposition Zposition Xrotation Yrotation Zrotation
			JOINT Haolin_28_06:Solving:Spine2
			{
				OFFSET 0.000000 -8.993092 0.786796
				CHANNELS 6 Xposition Yposition Zposition Xrotation Yrotation Zrotation
				JOINT Haolin_28_06:Solving:Spine3
				{
					OFFSET 0.000000 -9.027443 0.000000
					CHANNELS 6 Xposition Yposition Zposition Xrotation Yrotation Zrotation
					JOINT Haolin_28_06:Solving:Neck
					{
						OFFSET 0.000000 -11.606712 -1.160669
						CHANNELS 6 Xposition Yposition Zposition Xrotation Yrotation Zrotation
						JOINT Haolin_28_06:Solving:Neck1
						{
							OFFSET 0.000000 -7.471592 -0.653680
							CHANNELS 6 Xposition Yposition Zposition Xrotation Yrotation Zrotation
							JOINT Haolin_28_06:Solving:Head
							{
								OFFSET 0.000000 -7.386181 -1.302382
								CHANNELS 6 Xposition Yposition Zposition Xrotation Yrotation Zrotation
								JOINT Haolin_28_06:Solving:HeadEnd
								{
									OFFSET 0.000000 -9.728081 0.000002
									CHANNELS 6 Xposition Yposition Zposition Xrotation Yrotation Zrotation
									End Site
									{
										OFFSET 0.000000 -9.728081 0.000002
									}
								}
							}
						}
					}
					JOINT Haolin_28_06:Solving:RightShoulder
					{
						OFFSET 0.000000 -8.290508 -5.270916
						CHANNELS 6 Xposition Yposition Zposition Xrotation Yrotation Zrotation
						JOINT Haolin_28_06:Solving:RightArm
						{
							OFFSET -19.261074 -0.000008 0.000000
							CHANNELS 6 Xposition Yposition Zposition Xrotation Yrotation Zrotation
							JOINT Haolin_28_06:Solving:RightForeArm
							{
								OFFSET -30.691700 -0.000011 0.000000
								CHANNELS 6 Xposition Yposition Zposition Xrotation Yrotation Zrotation
								JOINT Haolin_28_06:Solving:RightHand
								{
									OFFSET -20.216934 -0.000008 0.000000
									CHANNELS 6 Xposition Yposition Zposition Xrotation Yrotation Zrotation
									JOINT Haolin_28_06:Solving:RightHandThumb1
									{
										OFFSET -4.948814 2.881329 -3.679893
										CHANNELS 6 Xposition Yposition Zposition Xrotation Yrotation Zrotation
										End Site
										{
											OFFSET -7.039886 -0.000004 -7.104978
										}
									}
									JOINT Haolin_28_06:Solving:RightHandMiddle1
									{
										OFFSET -13.196846 -0.000004 0.084595
										CHANNELS 6 Xposition Yposition Zposition Xrotation Yrotation Zrotation
										End Site
										{
											OFFSET -10.002037 -0.000004 0.000000
										}
									}
								}
							}
						}
					}
					JOINT Haolin_28_06:Solving:LeftShoulder
					{
						OFFSET 0.000000 -8.290508 -5.270916
						CHANNELS 6 Xposition Yposition Zposition Xrotation Yrotation Zrotation
						JOINT Haolin_28_06:Solving:LeftArm
						{
							OFFSET 19.261074 -0.000008 0.000000
							CHANNELS 6 Xposition Yposition Zposition Xrotation Yrotation Zrotation
							JOINT Haolin_28_06:Solving:LeftForeArm
							{
								OFFSET 30.691700 -0.000011 0.000000
								CHANNELS 6 Xposition Yposition Zposition Xrotation Yrotation Zrotation
								JOINT Haolin_28_06:Solving:LeftHand
								{
									OFFSET 20.216934 -0.000008 0.000000
									CHANNELS 6 Xposition Yposition Zposition Xrotation Yrotation Zrotation
									JOINT Haolin_28_06:Solving:LeftHandThumb1
									{
										OFFSET 4.948814 2.881329 -3.679893
										CHANNELS 6 Xposition Yposition Zposition Xrotation Yrotation Zrotation
										End Site
										{
											OFFSET 7.039886 -0.000004 -7.104978
										}
									}
									JOINT Haolin_28_06:Solving:LeftHandMiddle1
									{
										OFFSET 13.196846 -0.000004 0.084595
										CHANNELS 6 Xposition Yposition Zposition Xrotation Yrotation Zrotation
										End Site
										{
											OFFSET 10.002037 -0.000004 0.000000
										}
									}
								}
							}
						}
					}
				}
			}
		}
	}
	JOINT Haolin_28_06:Solving:RightUpLeg
	{
		OFFSET -10.083070 0.000000 0.000000
		CHANNELS 6 Xposition Yposition Zposition Xrotation Yrotation Zrotation
		JOINT Haolin_28_06:Solving:RightLeg
		{
			OFFSET 0.000000 47.042522 -0.000008
			CHANNELS 6 Xposition Yposition Zposition Xrotation Yrotation Zrotation
			JOINT Haolin_28_06:Solving:RightFoot
			{
				OFFSET 0.000000 38.766415 -0.000006
				CHANNELS 6 Xposition Yposition Zposition Xrotation Yrotation Zrotation
				JOINT Haolin_28_06:Solving:RightForeFoot
				{
					OFFSET 0.000000 3.531212 -0.000000
					CHANNELS 6 Xposition Yposition Zposition Xrotation Yrotation Zrotation
					JOINT Haolin_28_06:Solving:RightToeBase
					{
						OFFSET 0.000000 0.000000 -13.829352
						CHANNELS 6 Xposition Yposition Zposition Xrotation Yrotation Zrotation
						JOINT Haolin_28_06:Solving:RightToeBaseEnd
						{
							OFFSET 0.000000 0.000000 -4.034167
							CHANNELS 6 Xposition Yposition Zposition Xrotation Yrotation Zrotation
							End Site
							{
								OFFSET 0.000000 -4.034164 0.000004
							}
						}
					}
				}
			}
		}
	}
	JOINT Haolin_28_06:Solving:LeftUpLeg
	{
		OFFSET 10.083070 0.000000 0.000000
		CHANNELS 6 Xposition Yposition Zposition Xrotation Yrotation Zrotation
		JOINT Haolin_28_06:Solving:LeftLeg
		{
			OFFSET 0.000000 47.042522 -0.000008
			CHANNELS 6 Xposition Yposition Zposition Xrotation Yrotation Zrotation
			JOINT Haolin_28_06:Solving:LeftFoot
			{
				OFFSET 0.000000 38.766415 -0.000006
				CHANNELS 6 Xposition Yposition Zposition Xrotation Yrotation Zrotation
				JOINT Haolin_28_06:Solving:LeftForeFoot
				{
					OFFSET 0.000000 3.531212 -0.000000
					CHANNELS 6 Xposition Yposition Zposition Xrotation Yrotation Zrotation
					JOINT Haolin_28_06:Solving:LeftToeBase
					{
						OFFSET 0.000000 0.000000 -13.829352
						CHANNELS 6 Xposition Yposition Zposition Xrotation Yrotation Zrotation
						JOINT Haolin_28_06:Solving:LeftToeBaseEnd
						{
							OFFSET 0.000000 0.000000 -4.855067
							CHANNELS 6 Xposition Yposition Zposition Xrotation Yrotation Zrotation
							End Site
							{
								OFFSET 0.000000 -4.855064 0.000004
							}
						}
					}
				}
			}
		}
	}
}
MOTION
Frames: 4
Frame Time: 0.041667
49.624645 -153.689514 -94.357224 93.683592 1.243638 -1.969169 0.000001 -12.181980 2.015494 23.335140 0.987554 3.324044 0.000000 -8.890306 1.567605 3.561120 -0.243693 0.044984 -0.000002 -8.993105 0.786756 3.936838 -1.614935 1.529616 -0.000003 -9.027450 0.000004 3.661848 -1.183579 3.747876 -0.000003 -11.606739 -1.160642 -8.701296 1.040417 1.026780 0.000006 -7.471596 -0.653614 -0.234239 0.003716 -0.943749 -0.000004 -7.386183 -1.302358 4.604394 0.128381 -1.083034 0.000004 -9.728081 -0.000021 0.000002 -0.000000 0.000001 0.000005 -8.290554 -5.270937 -0.000008 13.452753 9.615169 -19.261065 -0.000021 -0.000017 -49.517680 -64.938775 -117.797759 -30.691704 -0.000028 -0.000002 -15.214598 -11.650191 -3.143526 -20.216938 -0.000005 -0.000007 3.196565 -11.974788 15.065425 -4.948796 2.881304 -3.679895 0.000002 -0.000000 0.000004 -13.196846 -0.000031 0.084571 -0.000000 0.000001 0.000000 0.000003 -8.290546 -5.270922 0.000003 -5.303041 -12.135360 19.261061 0.000029 -0.000028 -39.228768 48.411882 105.356044 30.691696 -0.000003 -0.000005 9.567798 11.846871 -1.981904 20.216911 -0.000016 0.000002 -0.423131 -1.990712 -12.002156 4.948811 2.881326 -3.679883 -0.000003 0.000009 -0.000004 13.196831 0.000038 0.084622 -0.000001 0.000001 -0.000000 -10.083072 -0.000008 -0.000017 -10.203035 14.088824 10.559944 -0.000003 47.042519 0.000006 0.428165 -0.000004 0.000001 -0.000000 38.766426 -0.000002 15.744395 1.629590 4.204993 -0.000003 3.531212 0.000024 0.000001 -0.000004 -0.000001 0.000010 0.000000 -13.829344 -1.240716 0.000003 -0.000000 -0.000000 0.000008 -4.034163 -0.000001 0.000002 0.000001 10.083064 -0.000023 -0.000064 -10.820299 -11.670824 2.271335 -0.000010 47.042534 -0.000016 15.929302 -0.000001 -0.000001 0.000001 38.766415 -0.000015 -0.167739 -6.398771 3.028480 -0.000002 3.531204 0.000022 0.000001 0.000001 0.000001 -0.000006 -0.000002 -13.829380 0.748956 0.000005 0.000000 -0.000018 -0.000008 -4.855066 -0.000001 0.000004 -0.000001 
49.651661 -153.575684 -94.357712 93.557527 1.567132 -2.035995 0.000001 -12.181961 2.015577 23.252583 1.061765 3.412832 0.000003 -8.890305 1.567581 3.580007 -0.257766 0.084154 -0.000001 -8.993108 0.786831 4.067679 -1.744401 1.581879 -0.000000 -9.027444 0.000040 3.696544 -1.207334 3.707113 0.000003 -11.606751 -1.160667 -8.709138 1.039719 0.998093 0.000003 -7.471588 -0.653715 -0.223916 -0.027697 -0.954165 0.000007 -7.386188 -1.302395 4.625632 0.124901 -1.079670 0.000004 -9.728088 0.000005 0.000004 0.000000 0.000000 0.000003 -8.290558 -5.270909 -0.000008 13.460092 9.728762 -19.261070 0.000007 0.000015 -47.777426 -62.912142 -116.337861 -30.691689 -0.000039 -0.000009 -12.116913 -11.590574 -2.469913 -20.216936 0.000015 -0.000011 3.204281 -12.157740 14.886382 -4.948824 2.881360 -3.679863 -0.000004 -0.000007 0.000006 -13.196860 0.000032 0.084614 0.000000 0.000002 0.000002 0.000003 -8.290554 -5.270910 -0.000002 -5.325573 -12.161609 19.261091 0.000017 0.000008 -39.753163 49.181214 106.272402 30.691696 -0.000025 0.000014 14.276695 11.998420 -3.028067 20.216940 -0.000019 -0.000006 -0.673353 -2.710483 -13.956918 4.948823 2.881333 -3.679869 0.000003 -0.000005 0.000001 13.196854 0.000000 0.084611 -0.000000 -0.000001 -0.000000 -10.083061 -0.000005 -0.000029 -9.984724 13.644737 10.585221 0.000009 47.042515 -0.000034 0.363501 0.000002 -0.000000 -0.000002 38.766426 -0.000004 15.731025 1.744144 4.130266 0.000001 3.531219 0.000052 -0.000001 -0.000000 -0.000001 0.000005 0.000021 -13.829339 -1.251698 -0.000000 -0.000001 -0.000001 -0.000015 -4.034172 -0.000002 -0.000004 -0.000000 10.083064 0.000005 0.000016 -10.503899 -11.959695 2.322576 0.000004 47.042503 -0.000055 15.800543 0.000001 -0.000001 -0.000000 38.766426 -0.000001 -0.229577 -6.438327 3.030755 0.000001 3.531219 0.000055 -0.000000 0.000001 -0.000000 0.000002 0.000016 -13.829348 0.789557 0.000001 -0.000001 -0.000015 -0.000008 -4.855057 0.000000 -0.000003 0.000000 
49.694813 -153.507202 -94.367760 93.481609 1.695633 -2.058139 -0.000012 -12.181959 2.015561 23.236637 1.042037 3.399742 -0.000006 -8.890284 1.567606 3.592624 -0.257790 0.078121 -0.000015 -8.993108 0.786767 4.101882 -1.670500 1.587863 -0.000007 -9.027451 0.000011 3.711436 -1.183119 3.691691 0.000007 -11.606732 -1.160679 -8.708853 1.038285 0.962022 -0.000004 -7.471589 -0.653650 -0.201826 -0.082050 -0.952607 0.000007 -7.386184 -1.302410 4.651334 0.121292 -1.079281 0.000007 -9.728088 0.000011 0.000003 0.000000 0.000001 0.000008 -8.290543 -5.270917 -0.000010 13.505962 9.782981 -19.261074 -0.000011 -0.000051 -46.174941 -60.945368 -114.890694 -30.691687 -0.000052 0.000006 -9.368223 -11.497748 -1.883504 -20.216913 0.000019 0.000021 3.107165 -12.447137 14.135982 -4.948809 2.881312 -3.679880 -0.000001 -0.000000 -0.000003 -13.196849 -0.000033 0.084594 0.000004 0.000001 -0.000003 0.000004 -8.290543 -5.270917 0.000003 -5.331011 -12.166421 19.261089 -0.000002 0.000009 -40.125907 49.401853 106.922588 30.691692 0.000008 -0.000016 18.330708 11.967787 -3.930128 20.216925 -0.000024 0.000004 -1.022600 -3.610147 -15.826450 4.948837 2.881330 -3.679874 -0.000004 0.000003 0.000000 13.196877 -0.000007 0.084597 -0.000001 0.000000 -0.000000 -10.083074 0.000015 -0.000009 -9.900198 13.574868 10.607966 -0.000003 47.042522 0.000008 0.367955 -0.000004 0.000002 -0.000008 38.766441 -0.000048 15.764179 1.760695 4.141513 0.000002 3.531204 -0.000046 -0.000000 -0.000002 -0.000001 -0.000006 0.000008 -13.829370 -1.272648 -0.000003 0.000001 0.000009 -0.000008 -4.034206 -0.000000 -0.000000 0.000001 10.083065 -0.000000 -0.000026 -10.333721 -11.990557 2.373452 -0.000006 47.042530 -0.000045 15.738457 0.000001 -0.000001 -0.000026 38.766415 0.000019 -0.228539 -6.526095 3.000466 0.000010 3.531212 -0.000031 0.000000 0.000000 0.000001 -0.000009 0.000011 -13.829363 0.769906 -0.000003 0.000000 -0.000002 -0.000000 -4.855039 -0.000000 -0.000001 -0.000001 
49.743202 -153.456787 -94.378212 93.429823 1.766778 -2.105917 0.000005 -12.181975 2.015621 23.243422 1.013002 3.396947 -0.000002 -8.890301 1.567615 3.598066 -0.254884 0.070019 -0.000001 -8.993094 0.786756 4.089351 -1.539293 1.581258 0.000005 -9.027453 0.000001 3.715037 -1.144934 3.663691 0.000005 -11.606712 -1.160650 -8.681864 1.064972 0.922035 -0.000003 -7.471589 -0.653672 -0.188051 -0.155648 -0.938367 0.000002 -7.386156 -1.302372 4.667567 0.114612 -1.074114 -0.000002 -9.728081 -0.000006 0.000009 -0.000000 -0.000000 0.000003 -8.290489 -5.270889 -0.000009 13.574389 9.693329 -19.261068 -0.000017 0.000020 -46.395511 -62.113201 -114.600725 -30.691711 -0.000021 -0.000009 -9.972244 -12.236300 -2.134175 -20.216940 -0.000002 -0.000003 2.869206 -12.275741 13.263886 -4.948807 2.881340 -3.679888 -0.000006 0.000009 0.000001 -13.196844 0.000007 0.084598 -0.000002 0.000001 0.000002 0.000001 -8.290482 -5.270889 -0.000007 -5.348947 -12.214047 19.261078 0.000018 -0.000009 -40.425977 49.321472 107.432728 30.691675 -0.000010 -0.000013 21.114502 11.842804 -4.531229 20.216934 -0.000021 -0.000001 -1.342315 -4.329414 -17.244098 4.948801 2.881296 -3.679911 -0.000003 0.000000 -0.000007 13.196853 -0.000050 0.084554 0.000002 0.000001 -0.000001 -10.083063 0.000002 0.000044 -9.875695 13.591646 10.678484 0.000001 47.042507 0.000045 0.400304 0.000004 0.000002 -0.000005 38.766415 -0.000017 15.771358 1.713664 4.179743 -0.000003 3.531220 0.000034 -0.000001 -0.000003 -0.000002 -0.000001 0.000006 -13.829351 -1.271204 0.000003 -0.000000 -0.000010 0.000000 -4.034096 0.000002 -0.000000 0.000002 10.083075 0.000009 0.000029 -10.202232 -11.918783 2.464986 -0.000005 47.042534 -0.000018 15.670368 0.000000 -0.000001 -0.000015 38.766434 -0.000010 -0.179407 -6.643558 2.956933 -0.000003 3.531204 -0.000015 -0.000001 0.000003 0.000000 -0.000001 0.000006 -13.829356 0.723984 -0.000000 -0.000000 0.000000 -0.000007 -4.855052 0.000000 -0.000001 0.000000 
